<svg width="32" height="32" viewBox="0 0 32 32" fill="none" xmlns="http://www.w3.org/2000/svg">
<path fill-rule="evenodd" clip-rule="evenodd" d="M12.6415 9.86495C12.7397 9.96317 12.8602 10.0123 13.0031 10.0123C13.1459 10.0123 13.2687 9.96093 13.3714 9.85826C13.4741 9.75558 13.5254 9.63281 13.5254 9.48995C13.5254 9.3471 13.4741 9.22433 13.3714 9.12165C13.2687 9.01897 13.1459 8.96763 13.0031 8.96763C12.8602 8.96763 12.7397 9.01897 12.6415 9.12165C12.5432 9.22433 12.4941 9.3471 12.4941 9.48995C12.4941 9.63281 12.5432 9.75781 12.6415 9.86495V9.86495ZM18.2799 9.86495C18.387 9.96317 18.512 10.0123 18.6549 10.0123C18.7977 10.0123 18.9182 9.96093 19.0165 9.85826C19.1147 9.75558 19.1638 9.63281 19.1638 9.48995C19.1638 9.3471 19.1147 9.22433 19.0165 9.12165C18.9182 9.01897 18.7977 8.96763 18.6549 8.96763C18.512 8.96763 18.3892 9.01897 18.2866 9.12165C18.1839 9.22433 18.1325 9.3471 18.1325 9.48995C18.1325 9.63281 18.1816 9.75781 18.2799 9.86495L18.2799 9.86495ZM7.77986 12.4766C8.15486 12.4766 8.47629 12.6105 8.74414 12.8783C9.012 13.1462 9.14593 13.4676 9.14593 13.8426V19.6016C9.14593 19.9855 9.01423 20.3114 8.75084 20.5792C8.48745 20.8471 8.16379 20.981 7.77986 20.981C7.39593 20.981 7.07003 20.8471 6.80218 20.5792C6.53432 20.3114 6.40039 19.9855 6.40039 19.6016V13.8426C6.40039 13.4676 6.53432 13.1462 6.80218 12.8783C7.07003 12.6105 7.39593 12.4766 7.77986 12.4766ZM21.9763 12.731V21.6507C21.9763 22.0614 21.8334 22.4096 21.5477 22.6953C21.262 22.9811 20.9182 23.1239 20.5164 23.1239H19.512V26.1641C19.512 26.548 19.378 26.8739 19.1102 27.1418C18.8423 27.4096 18.5164 27.5436 18.1325 27.5436C17.7486 27.5436 17.4227 27.4096 17.1548 27.1418C16.887 26.8739 16.753 26.548 16.753 26.1641V23.1239H14.9048V26.1641C14.9048 26.548 14.7709 26.8739 14.503 27.1418C14.2352 27.4096 13.9093 27.5436 13.5254 27.5436C13.1504 27.5436 12.8289 27.4096 12.5611 27.1418C12.2932 26.8739 12.1593 26.548 12.1593 26.1641L12.1459 23.1239H11.1548C10.7441 23.1239 10.3959 22.9811 10.1102 22.6953C9.82447 22.4096 9.68161 22.0614 9.68161 21.6507V12.731H21.9763ZM18.8691 7.30692C19.8245 7.79799 20.5879 8.48326 21.1593 9.36272C21.7307 10.2422 22.0164 11.2042 22.0164 12.2489H9.62803C9.62803 11.2042 9.91375 10.2422 10.4852 9.36272C11.0566 8.48325 11.8245 7.79799 12.7887 7.30692L11.8378 5.55246C11.7753 5.43638 11.7977 5.3471 11.9048 5.2846C12.0209 5.23103 12.1102 5.25781 12.1727 5.36496L13.137 7.13281C13.9852 6.75781 14.8825 6.57031 15.8289 6.57031C16.7754 6.57031 17.6727 6.75781 18.5209 7.13281L19.4852 5.36496C19.5477 5.25781 19.637 5.23103 19.753 5.2846C19.8602 5.3471 19.8825 5.43638 19.82 5.55246L18.8691 7.30692ZM25.2575 13.8426V19.6016C25.2575 19.9855 25.1236 20.3114 24.8557 20.5792C24.5879 20.8471 24.262 20.981 23.878 20.981C23.503 20.981 23.1816 20.8471 22.9137 20.5792C22.6459 20.3114 22.512 19.9855 22.512 19.6016V13.8426C22.512 13.4587 22.6459 13.135 22.9137 12.8716C23.1816 12.6083 23.503 12.4766 23.878 12.4766C24.262 12.4766 24.5879 12.6083 24.8557 12.8716C25.1236 13.135 25.2575 13.4587 25.2575 13.8426Z" fill="#101213"/>
</svg>
