<svg width="32" height="32" viewBox="0 0 32 32" fill="none" xmlns="http://www.w3.org/2000/svg">
<path d="M11.3541 25.6751C10.928 25.3984 10.5496 25.0577 10.2329 24.6655C9.88774 24.2591 9.56778 23.8316 9.27396 23.3891C8.58396 22.406 8.0436 21.3309 7.66966 20.1971C7.21901 18.8785 7 17.6161 7 16.3809C7 15.0026 7.30644 13.7999 7.90309 12.7904C8.348 11.9994 9.00133 11.3381 9.79581 10.8748C10.5656 10.4097 11.4498 10.155 12.3555 10.1374C12.6709 10.1374 13.0134 10.1813 13.3739 10.2691C13.6353 10.3393 13.9508 10.4534 14.3383 10.5939C14.834 10.7783 15.1044 10.8924 15.1945 10.9187C15.483 11.0241 15.7263 11.068 15.9156 11.068C16.0598 11.068 16.2671 11.0241 16.4969 10.9538C16.6276 10.9099 16.8755 10.8309 17.227 10.6817C17.5749 10.5588 17.8507 10.4534 18.0697 10.3744C18.4031 10.2779 18.7258 10.1901 19.016 10.1462C19.3675 10.0935 19.7163 10.0759 20.0507 10.1023C20.6906 10.1462 21.2765 10.2779 21.7992 10.471C22.7185 10.8309 23.4603 11.3928 24.0137 12.1917C23.7794 12.3321 23.563 12.4954 23.3602 12.6745C22.9213 13.052 22.5491 13.4997 22.2517 13.9957C21.8651 14.6719 21.6652 15.4341 21.6712 16.208C21.6847 17.1587 21.9326 17.9945 22.4283 18.7187C22.7893 19.2558 23.2599 19.7148 23.8109 20.0672C24.0903 20.2515 24.3354 20.3788 24.568 20.4622C24.4598 20.7914 24.3409 21.1119 24.203 21.4279C23.8902 22.1364 23.518 22.815 23.0763 23.4558C22.687 24.0089 22.3805 24.4215 22.148 24.6936C21.7857 25.115 21.436 25.4311 21.0845 25.6567C20.6969 25.9069 20.2418 26.0394 19.7758 26.0394C19.4604 26.0526 19.1449 26.0131 18.8439 25.9279C18.5825 25.8445 18.3247 25.7506 18.0724 25.6444C17.8079 25.5265 17.5354 25.4268 17.2567 25.3459C16.9142 25.2587 16.5616 25.2153 16.2076 25.2169C15.8471 25.2169 15.4956 25.2608 15.1621 25.3442C14.8827 25.4214 14.6123 25.5162 14.3446 25.6295C13.9661 25.7831 13.7182 25.8841 13.574 25.9279C13.2835 26.0117 12.9842 26.0632 12.6817 26.0816C12.2131 26.0816 11.7768 25.9499 11.3424 25.6865L11.3541 25.6751ZM17.5316 9.46932C16.9187 9.7678 16.3365 9.89422 15.7533 9.85208C15.6632 9.28497 15.7533 8.70205 15.9967 8.06383C16.213 7.51954 16.5014 7.02792 16.898 6.58898C17.3126 6.13247 17.8083 5.75498 18.3671 5.48284C18.9619 5.18436 19.5298 5.02634 20.0705 5C20.1426 5.59696 20.0705 6.18515 19.8452 6.81723C19.6378 7.3787 19.3329 7.90132 18.9439 8.36231C18.5519 8.81881 18.0652 9.1963 17.5145 9.46844L17.5316 9.46932Z" fill="#0A1B22"/>
</svg>
